PathFileType	4	(X/Y/Z)	C:/Users/opensim2020/Desktop/walking_exp_matlab/subject02_walking10_straight_02.trc	
DataRate	CameraRate	NumFrames	NumMarkers	Units	OrigDataRate	OrigDataStartFrame	OrigNumFrames	
100.00	100.00	4	43	mm	100.00	1505	280	
Frame#	Time	LFHD			RFHD			LBHD			RBHD			C7			T10			CLAV			STRN			RBAK			LSHO			LUPA			LELB			LFRM			LWRA			LWRB			LFIN			RSHO			RUPA			RELB			RFRM			RWRA			RWRB			RFIN			LASI			RASI			LPSI			RPSI			LTHI			LKNE			LTIB			LANK			LHEE			LTOE			RTHI			RKNE			RTIB			RANK			RHEE			RTOE			*39			*40			*41			*42			
		X1	Y1	Z1	X2	Y2	Z2	X3	Y3	Z3	X4	Y4	Z4	X5	Y5	Z5	X6	Y6	Z6	X7	Y7	Z7	X8	Y8	Z8	X9	Y9	Z9	X10	Y10	Z10	X11	Y11	Z11	X12	Y12	Z12	X13	Y13	Z13	X14	Y14	Z14	X15	Y15	Z15	X16	Y16	Z16	X17	Y17	Z17	X18	Y18	Z18	X19	Y19	Z19	X20	Y20	Z20	X21	Y21	Z21	X22	Y22	Z22	X23	Y23	Z23	X24	Y24	Z24	X25	Y25	Z25	X26	Y26	Z26	X27	Y27	Z27	X28	Y28	Z28	X29	Y29	Z29	X30	Y30	Z30	X31	Y31	Z31	X32	Y32	Z32	X33	Y33	Z33	X34	Y34	Z34	X35	Y35	Z35	X36	Y36	Z36	X37	Y37	Z37	X38	Y38	Z38	X39	Y39	Z39	X40	Y40	Z40	X41	Y41	Z41	X42	Y42	Z42	X43	Y43	Z43	

106	1.050	-975.60840	294.24982	1732.90918	-1116.95300	301.75708	1704.83337	-953.57336	418.61044	1650.28113	-1093.18982	437.73151	1619.69751	-1016.44891	469.86838	1511.03491	-1020.90515	530.66357	1237.79810	-1008.15125	332.43085	1438.40649	-1014.70642	285.76984	1264.47424	-1075.43530	534.38696	1338.45593	-837.32922	390.40292	1487.05920	-748.16498	379.36523	1288.06165	-730.50958	354.28632	1148.30444	-727.16351	300.31552	1025.80481	-771.78278	209.59520	930.43994	-734.85718	249.21588	914.48718	-734.09375	206.09691	865.03082	-1204.50708	398.54071	1470.13135	-1282.37341	449.59839	1282.92078	-1299.41980	450.71051	1136.32019	-1318.94373	426.17392	1017.61938	-1301.51746	378.45657	890.38513	-1329.62524	427.76614	887.56421	-1334.11938	391.60687	824.28546	-879.22906	313.79807	967.15393	-1136.59363	294.14493	962.88202	-976.13513	515.30896	1017.23181	-1090.06494	514.15820	1015.93683	-847.65924	435.45535	664.33881	-885.40399	507.88284	473.42538	-895.96509	616.56482	310.20779	-938.93140	672.54541	92.51035	-992.93750	710.55212	72.78872	-921.03333	524.48621	35.30130	-1221.71326	299.97391	668.48102	-1181.09644	240.58008	469.23578	-1189.61218	231.63739	281.84119	-1159.78687	192.45094	92.07166	-1100.67041	205.71660	33.75574	-1182.69543	33.62207	66.83255	-1063.45996	405.40839	1785.42957	-3360.22998	2845.10693	1034.15198						 
107	1.060	-978.29218	286.31497	1732.03503	-1119.41992	294.18073	1703.89880	-955.79309	410.90042	1649.50049	-1095.27966	429.92474	1618.51416	-1018.73132	461.90405	1509.84021	-1023.30511	521.79364	1236.32593	-1010.20490	324.20486	1437.59839	-1016.60712	276.96225	1263.84729	-1078.08545	525.94818	1337.16345	-839.53137	382.63052	1486.16968	-750.76007	372.29181	1287.10999	-733.46002	349.05914	1147.02893	-729.89331	296.73611	1023.64587	-774.12811	207.36476	926.98468	-737.36780	247.34959	911.71796	-736.53107	204.84692	861.41797	-1206.71228	390.17361	1469.20862	-1284.45044	440.82721	1281.86853	-1301.12659	441.66058	1135.00708	-1320.73059	417.17630	1016.46564	-1303.35596	369.23999	889.44592	-1331.09998	418.43069	886.29547	-1335.75342	382.57068	823.16925	-881.09265	304.26041	966.46783	-1138.39014	283.86044	962.77692	-978.89282	505.81854	1015.96997	-1092.79480	504.20612	1014.73193	-849.03687	427.87686	663.89117	-886.33600	501.34323	473.47842	-896.82300	612.51044	311.96014	-939.04193	671.58789	94.73462	-993.02972	709.56445	75.67488	-920.86499	524.42828	35.25240	-1223.21118	290.59708	667.12463	-1182.19092	233.42700	467.42801	-1189.17004	227.32388	279.47989	-1158.85413	190.54045	89.70393	-1100.37390	205.44913	33.25610	-1181.61011	31.90064	61.38943	-1065.58545	397.99301	1784.45911	-3360.35059	2845.09619	1034.14709						 
108	1.070	-980.94354	278.44122	1731.67004	-1121.86719	286.52725	1703.13818	-958.14691	403.01227	1648.65686	-1097.42444	421.95154	1617.29285	-1021.08435	453.97174	1508.71484	-1025.93884	512.87628	1235.10938	-1012.16809	315.94415	1436.91650	-1018.53503	268.07336	1263.44580	-1080.36731	517.24298	1335.81909	-841.82837	374.75671	1485.21252	-753.34302	365.47647	1286.17517	-736.58179	343.81741	1145.65503	-732.74316	293.58356	1021.72278	-776.49561	205.22710	923.57819	-739.78900	245.57054	909.04559	-739.07837	203.88779	857.84906	-1208.95654	381.67664	1468.30188	-1286.97510	431.96429	1280.91260	-1303.41138	432.74118	1134.14673	-1322.71094	408.00415	1015.44415	-1304.92017	360.17636	888.28168	-1333.05334	409.39920	885.31213	-1337.36255	373.27240	822.01288	-882.82007	295.02850	965.75116	-1140.09436	273.74841	962.38239	-981.86267	496.25931	1014.70190	-1095.74133	494.08270	1013.59796	-850.53827	420.21106	663.48865	-887.41217	494.53525	473.67123	-897.84723	608.27277	313.88657	-938.98071	670.44562	97.27631	-992.77771	708.23340	78.77758	-920.66632	524.36871	35.25101	-1224.89014	281.61505	665.85608	-1183.99268	226.47147	465.92322	-1188.32336	222.30235	277.60742	-1159.06079	186.52989	89.07972	-1100.35657	203.19411	34.99466	-1182.20886	28.08419	54.01786	-1068.10559	390.43561	1783.51318	-3360.40332	2845.19824	1034.06458						 
109	1.080	-983.18982	271.12213	1731.64771	-1124.46460	278.83630	1702.85571	-960.48322	395.08618	1648.19836	-1100.01685	414.05838	1616.76831	-1023.52020	446.14490	1507.86230	-1028.66248	504.04022	1234.51990	-1014.28241	307.61578	1436.49854	-1020.43793	259.23340	1263.33984	-1082.39221	508.56775	1334.97253	-843.87463	367.15814	1484.62036	-755.95630	358.59338	1285.19617	-739.70660	338.66034	1144.40918	-735.54565	290.25128	1019.69330	-778.79620	203.40639	920.05371	-742.29199	244.53300	906.15643	-741.45532	203.54550	854.29797	-1211.41052	373.11157	1467.37390	-1288.97754	423.01300	1279.80444	-1305.23218	423.26889	1132.80542	-1324.69324	398.70511	1014.37128	-1306.84607	350.60489	887.39313	-1334.63611	400.03970	884.16357	-1339.03149	363.74939	820.97778	-884.74310	285.37494	965.07068	-1141.94714	263.71756	962.50830	-984.94116	486.63806	1013.54785	-1098.86377	483.74313	1012.69025	-852.07458	412.30621	663.27954	-888.50366	487.35709	474.05038	-898.95178	603.64050	316.04984	-938.77191	669.06537	100.22305	-992.66016	707.06805	82.52912	-920.51459	524.27020	35.23482	-1226.87427	273.52939	665.52338	-1185.96631	219.01927	465.63327	-1187.93506	215.50836	277.31848	-1161.22388	180.86542	89.21857	-1102.44629	200.25391	36.84795	-1183.16943	23.18368	49.96128	-1070.71619	382.98193	1782.87231	-3360.24854	2845.16406	1034.17334						 
